o beam
v -0.154680 -0.500000 0.154680
v 0.154680 -0.500000 -0.154680
v -0.154680 0.500000 0.154680
v 0.154680 0.500000 -0.154680
v 0.154680 -0.500000 0.154680
v -0.154680 -0.500000 -0.154680
v 0.154680 0.500000 0.154680
v -0.154680 0.500000 -0.154680
v 0.154680 -0.500000 -0.154680
v -0.154680 -0.500000 0.154680
v 0.154680 0.500000 -0.154680
v -0.154680 0.500000 0.154680
v -0.154680 -0.500000 -0.154680
v 0.154680 -0.500000 0.154680
v -0.154680 0.500000 -0.154680
v 0.154680 0.500000 0.154680
vt 0.281250 0.000000
vt 0.718750 0.000000
vt 0.718750 1.000000
vt 0.281250 1.000000
vt 0.281250 0.000000
vt 0.718750 0.000000
vt 0.718750 1.000000
vt 0.281250 1.000000
vt 0.281250 0.000000
vt 0.718750 0.000000
vt 0.718750 1.000000
vt 0.281250 1.000000
vt 0.281250 0.000000
vt 0.718750 0.000000
vt 0.718750 1.000000
vt 0.281250 1.000000
vn 0.7071 -0.0000 0.7071
vn 0.7071 0.0000 -0.7071
vn -0.7071 -0.0000 -0.7071
vn -0.7071 -0.0000 0.7071
s off
f 1/1/1 2/2/1 4/3/1 3/4/1
f 5/5/2 6/6/2 8/7/2 7/8/2
f 9/9/3 10/10/3 12/11/3 11/12/3
f 13/13/4 14/14/4 16/15/4 15/16/4
