# Blender v2.80 (sub 75) OBJ File: ''
# www.blender.org
o Plane
v -0.154680 -0.500000 0.154680
v 0.154680 -0.500000 -0.154680
v -0.154680 0.500000 0.154680
v 0.154680 0.500000 -0.154680
v 0.154680 -0.500000 0.154680
v -0.154680 -0.500000 -0.154680
v 0.154680 0.500000 0.154680
v -0.154680 0.500000 -0.154680
vt 0.281250 0.000000
vt 0.718750 0.000000
vt 0.718750 1.000000
vt 0.281250 1.000000
vt 0.281250 0.000000
vt 0.718750 0.000000
vt 0.718750 1.000000
vt 0.281250 1.000000
vn 0.7071 -0.0000 0.7071
vn 0.7071 0.0000 -0.7071
s off
f 1/1/1 2/2/1 4/3/1 3/4/1
f 5/5/2 6/6/2 8/7/2 7/8/2
